#!OML:ASF H:\Terrain\Patient Classification 1\Terrain2\Thursday\justin.ASF
:FULLY-SPECIFIED
:DEGREES
3923
root 2.36845 23.028 0.40654 -515.506 71.7354 -152.306
lowerback 26.3173 -1.74981 5.27368
upperback 5.0172 0.37685 4.99156
thorax -9.04683 0.379359 2.37421
lowerneck -14.3958 -6.29261 -13.9072
upperneck 30.4118 -6.17352 6.08675
head 13.3269 -3.24105 3.86009
rclavicle 2.18663e-015 -5.48646e-014
rhumerus -23.2449 16.081 -63.9123
rradius 52.1574
rwrist -16.6515
rhand -23.0959 21.3875
rfingers 7.12502
rthumb 3.35046 -8.56591
lclavicle 2.18663e-015 -5.48646e-014
lhumerus -35.5771 -0.213179 73.8108
lradius 103.428
lwrist -22.3133
lhand 23.1978 58.0201
lfingers 7.12502
lthumb 47.5016 -279.538
rfemur -59.4785 -15.6577 26.1281
rtibia 83.5047
rfoot -19.8578 2.20741
rtoes 4.15033
lfemur -3.94336 -2.72687 -5.85197
ltibia 56.6577
lfoot 16.8252 -8.85926
ltoes 13.0547
3924
root 2.48426 23.0954 0.407543 -515.328 72.218 -151.975
lowerback 26.3612 -1.57085 5.3901
upperback 5.06614 0.653874 5.05798
thorax -9.01571 0.511064 2.28855
lowerneck -14.2828 -6.40102 -13.9305
upperneck 30.6134 -6.2665 5.91833
head 13.3985 -3.3037 3.78868
rclavicle 2.60408e-014 -3.49861e-014
rhumerus -22.646 14.5305 -64.41
rradius 49.8307
rwrist -15.9565
rhand -24.2991 21.279
rfingers 7.12502
rthumb 2.18849 -8.6895
lclavicle 2.60408e-014 -3.49861e-014
lhumerus -36.4306 0.78052 74.2648
lradius 101.251
lwrist -23.1298
lhand 23.117 57.5126
lfingers 7.12502
lthumb 47.427 -280.012
rfemur -58.5262 -15.2507 26.0272
rtibia 83.0232
rfoot -19.8838 2.57712
rtoes 5.8489
lfemur -5.32354 -1.72876 -5.65551
ltibia 61.0517
lfoot 14.4604 -9.37107
ltoes 9.18327
3925
root 2.60014 23.1734 0.398338 -511.752 72.4083 -148.129
lowerback 26.3204 -1.48094 6.64433
upperback 5.1606 1.16953 5.37387
thorax -8.87542 0.74304 1.75165
lowerneck -14.1497 -6.53462 -13.9922
upperneck 30.7085 -6.38297 5.72543
head 13.4246 -3.38395 3.70652
rclavicle 1.96797e-014 2.22639e-014
rhumerus -21.7865 12.6071 -64.7494
rradius 47.1547
rwrist -15.7296
rhand -25.149 21.5598
rfingers 7.12502
rthumb 1.36767 -8.4156
lclavicle 1.96797e-014 2.22639e-014
lhumerus -37.0961 1.57081 74.7833
lradius 99.0554
lwrist -23.9025
lhand 22.9852 57.1042
lfingers 7.12502
lthumb 47.3052 -280.365
rfemur -57.255 -14.6552 27.2064
rtibia 82.1246
rfoot -20.0727 2.43035
rtoes 4.18757
lfemur -6.64024 -0.600851 -4.25743
ltibia 65.3987
lfoot 11.7833 -9.6487
ltoes 4.77059
3926
root 2.70106 23.2569 0.393402 -508.97 72.7203 -145.35
lowerback 26.2019 -1.4059 7.72186
upperback 5.17457 1.5606 5.42821
thorax -8.76726 0.907832 1.06996
lowerneck -14.0925 -6.59722 -14.0663
upperneck 30.8335 -6.45821 5.75644
head 13.4814 -3.41984 3.72388
rclavicle 6.02318e-014 2.38542e-015
rhumerus -20.6914 10.3685 -65.3069
rradius 44.0287
rwrist -14.5889
rhand -25.4361 21.8143
rfingers 7.12502
rthumb 1.09042 -8.16263
lclavicle 6.02318e-014 2.38542e-015
lhumerus -37.622 2.24981 75.055
lradius 96.8455
lwrist -24.2275
lhand 22.8217 56.9159
lfingers 7.12502
lthumb 47.154 -280.486
rfemur -56.2763 -13.8154 27.5911
rtibia 81.4806
rfoot -20.266 3.9447
rtoes 10.988
lfemur -8.25575 0.166093 -3.36213
ltibia 69.6222
lfoot 9.54816 -8.81562
ltoes 5.00255
3927
root 2.79624 23.2931 0.3912 -508.592 72.9679 -145.143
lowerback 25.9886 -1.34587 8.11741
upperback 5.13311 1.71534 5.41488
thorax -8.68752 0.970226 0.780499
lowerneck -14.1026 -6.65253 -13.9977
upperneck 31.1203 -6.47548 5.57557
head 13.6014 -3.43922 3.64481
rclavicle -3.10104e-014 -3.02153e-014
rhumerus -19.6537 8.40844 -65.7199
rradius 41.0699
rwrist -13.7915
rhand -25.5508 21.8803
rfingers 7.12502
rthumb 0.979626 -8.09723
lclavicle -3.10104e-014 -3.02153e-014
lhumerus -38.159 2.93612 75.3514
lradius 94.6309
lwrist -24.7056
lhand 22.5764 56.6336
lfingers 7.12502
lthumb 46.9272 -280.668
rfemur -56.0453 -14.3348 28.7366
rtibia 80.3745
rfoot -20.1907 -0.820063
rtoes -12.8074
lfemur -10.2092 0.43057 -3.3015
ltibia 73.8798
lfoot 7.17316 -7.87695
ltoes 5.74578
3928
root 2.89416 23.3502 0.386022 -507.389 72.9787 -143.962
lowerback 25.8326 -1.31304 8.52323
upperback 5.13049 1.90194 5.74728
thorax -8.6045 1.06303 0.862229
lowerneck -14.0498 -6.731 -14.0297
upperneck 31.3405 -6.41114 5.11445
head 13.6678 -3.47008 3.48092
rclavicle 6.36111e-015 7.79236e-014
rhumerus -18.4981 6.83055 -65.7953
rradius 38.2003
rwrist -13.7323
rhand -25.4675 21.968
rfingers 7.12502
rthumb 1.06006 -8.00906
lclavicle 6.36111e-015 7.79236e-014
lhumerus -38.8331 3.91672 76.0264
lradius 92.4738
lwrist -25.6672
lhand 22.428 55.9646
lfingers 7.12502
lthumb 46.7899 -281.277
rfemur -55.3953 -14.4715 29.4912
rtibia 79.5509
rfoot -19.8935 -2.51081
rtoes -20.5195
lfemur -12.046 0.93255 -2.73671
ltibia 77.9001
lfoot 4.67875 -7.24616
ltoes 5.44488
3929
root 2.9927 23.419 0.383121 -505.79 73.1934 -142.22
lowerback 25.8843 -1.22468 8.90939
upperback 5.1246 2.16043 5.93709
thorax -8.62233 1.18255 0.773499
lowerneck -13.9178 -6.76418 -14.0098
upperneck 31.5977 -6.39416 4.92357
head 13.7439 -3.48184 3.41301
rclavicle -1.59028e-014 -6.67916e-014
rhumerus -17.4874 4.77573 -66.1568
rradius 35.3237
rwrist -13.3653
rhand -25.0763 22.1524
rfingers 7.12502
rthumb 1.43788 -7.82249
lclavicle -1.59028e-014 -6.67916e-014
lhumerus -39.5255 4.80827 76.503
lradius 90.3398
lwrist -26.4875
lhand 22.1794 55.0864
lfingers 7.12502
lthumb 46.5597 -282.056
rfemur -54.4252 -14.1035 29.8367
rtibia 78.8331
rfoot -19.9981 -2.54373
rtoes -20.6058
lfemur -13.5387 1.72773 -2.09164
ltibia 81.6425
lfoot 2.11077 -6.59261
ltoes 5.07119
3930
root 3.09189 23.4893 0.387569 -505.335 73.4148 -141.435
lowerback 26.1893 -1.19592 9.08671
upperback 5.10226 2.2987 5.96321
thorax -8.79253 1.23958 0.657806
lowerneck -13.7342 -6.7129 -13.8689
upperneck 31.9101 -6.34175 4.88237
head 13.8257 -3.44462 3.39517
rclavicle -1.47101e-014 -4.77083e-014
rhumerus -16.7888 2.32247 -66.726
rradius 32.7639
rwrist -12.2974
rhand -24.6875 21.8181
rfingers 7.12502
rthumb 1.81334 -8.15394
lclavicle -1.47101e-014 -4.77083e-014
lhumerus -40.2485 5.55215 76.6671
lradius 88.2453
lwrist -27.245
lhand 21.623 54.3424
lfingers 7.12502
lthumb 46.0439 -282.581
rfemur -53.2257 -13.9661 29.8488
rtibia 78.2986
rfoot -20.4704 -2.41895
rtoes -18.8556
lfemur -14.6786 2.38655 -1.80012
ltibia 85.017
lfoot -0.702404 -5.96753
ltoes 2.47507
3931
root 3.18601 23.568 0.392807 -504.973 73.4553 -140.656
lowerback 26.6206 -1.23578 9.14717
upperback 5.12681 2.38047 6.23826
thorax -8.99497 1.28477 0.904489
lowerneck -13.8051 -6.62234 -13.9314
upperneck 32.2211 -6.07898 4.65775
head 13.9455 -3.36366 3.36672
rclavicle -4.77083e-014 -1.01778e-013
rhumerus -16.0482 -0.296231 -67.0182
rradius 30.4246
rwrist -10.8309
rhand -24.1685 21.3951
rfingers 7.12502
rthumb 2.31459 -8.57213
lclavicle -4.77083e-014 -1.01778e-013
lhumerus -40.977 6.5409 77.081
lradius 86.2724
lwrist -27.8045
lhand 20.9849 53.7838
lfingers 7.12502
lthumb 45.4514 -282.897
rfemur -51.8276 -13.7167 29.6985
rtibia 77.8374
rfoot -21.026 -1.17709
rtoes -12.0383
lfemur -15.7332 3.08773 -1.38684
ltibia 88.1168
lfoot -3.54996 -5.33267
ltoes -3.11085
